# xmcd CD database file
#
# Track frame offsets:
#	150
#	12564
#	22612
#	33711
#	43625
#	57303
#	74074
#	85497
#	96115
#	113963
#	127133
#	141964
#
# Disc length: 2104 seconds
#
# Revision: 1
# Processed by: cddbd v1.5.2PL0 Copyright (c) Steve Scherf et al.
# Submitted via: CDex 1.51
#
DISCID=af08360c
DTITLE=Various Artist - Grand Ole Opry Classic Hits
DYEAR=2011
DGENRE=Country
TTITLE0=Tammy Wynette - Stand By Your Man
TTITLE1=Jonny Cash - Ring of Fire
TTITLE2=Patsy Cline - Chazy
TTITLE3=George Jones - The Race is on
TTITLE4=Loretta Lynn - Coal Miners´s Daughter
TTITLE5=The Oak Ridge Boys - Elvira
TTITLE6=Dolly Parton - Love is like a Butterfly
TTITLE7=Porter Wagoner - Green green Grass of Home
TTITLE8=Ray Price - For the good times
TTITLE9=Marty Robbins - El Paso
TTITLE10=Jack Greene - Statue of a Fool
TTITLE11=Garth Brooks - Much too young (to feel this damn old)
EXTD=YEAR: 2011
EXTT0=
EXTT1=
EXTT2=
EXTT3=
EXTT4=
EXTT5=
EXTT6=
EXTT7=
EXTT8=
EXTT9=
EXTT10=
EXTT11=
PLAYORDER=
